<svg width="536" height="625" viewBox="0 0 536 625" fill="none" xmlns="http://www.w3.org/2000/svg">
<g filter="url(#filter0_d_4620_3053)">
<g clip-path="url(#clip0_4620_3053)">
<rect x="488.397" y="156.643" width="451.621" height="286.288" rx="10" transform="rotate(108.117 488.397 156.643)" fill="#633EF8"/>
<circle cx="196.074" cy="491.938" r="195.571" transform="rotate(108.117 196.074 491.938)" fill="#8567FF"/>
<circle cx="110.514" cy="478.718" r="171.408" transform="rotate(108.117 110.514 478.718)" fill="#7856FF"/>
<path d="M333.091 521.873L328.968 534.475L306.324 527.067L310.447 514.465L333.091 521.873Z" fill="#FF5F00"/>
<path d="M301.838 502.215L304.238 503C305.158 503.301 305.942 502.937 306.256 501.977C306.413 501.497 306.423 500.925 306.021 500.394C306.552 500.258 306.923 499.937 307.12 499.337C307.25 498.937 307.261 498.498 306.926 498.033L307.406 498.19L307.681 497.35L303.84 496.094L303.566 496.934L305.686 497.628C306.366 497.85 306.568 498.315 306.385 498.875C306.202 499.435 305.75 499.597 305.11 499.388L302.99 498.694L302.715 499.534L304.835 500.228C305.515 500.451 305.704 500.955 305.534 501.475C305.351 502.036 304.899 502.198 304.259 501.988L302.139 501.295L301.838 502.215ZM301.608 515.913L302.053 514.553L303.213 514.933L303.488 514.092L302.328 513.713L302.576 512.953L301.816 512.704L301.568 513.464L299.807 512.888C298.927 512.6 298.289 512.79 297.975 513.75C297.857 514.11 297.846 514.55 297.915 514.882L298.713 514.878C298.632 514.585 298.684 514.292 298.749 514.092C298.88 513.692 299.172 513.611 299.572 513.742L301.293 514.304L300.848 515.664L301.608 515.913ZM299.358 523.061C299.515 522.58 299.38 522.182 299.125 521.877L299.605 522.034L299.88 521.194L296.039 519.938L295.765 520.778L297.925 521.484C298.565 521.694 298.833 522.092 298.663 522.612C298.611 522.772 298.505 522.959 298.413 523.106L299.135 523.607C299.227 523.46 299.306 523.22 299.358 523.06L299.358 523.061ZM302.479 512.168C302.89 511.859 303.193 511.339 303.389 510.738C303.703 509.778 303.433 508.981 302.673 508.733C302.032 508.523 301.515 508.885 301.12 509.686L300.95 510.073C300.726 510.487 300.527 510.688 300.327 510.622C300.047 510.531 299.952 510.145 300.135 509.585C300.318 509.025 300.662 508.651 300.954 508.436L300.445 507.826C299.981 508.162 299.624 508.71 299.428 509.31C299.062 510.43 299.372 511.24 300.092 511.476C300.772 511.698 301.303 511.296 301.684 510.535L301.855 510.148C302.013 509.801 302.185 509.547 302.425 509.626C302.705 509.717 302.773 510.05 302.629 510.49C302.472 510.97 302.115 511.385 301.916 511.585L302.479 512.168ZM295.575 534.622C295.732 534.142 295.597 533.744 295.342 533.439L295.822 533.596L296.097 532.756L292.257 531.499L291.982 532.339L294.142 533.046C294.782 533.255 295.051 533.653 294.881 534.173C294.828 534.334 294.723 534.521 294.63 534.667L295.352 535.169C295.444 535.022 295.523 534.782 295.575 534.622ZM297.083 523.246C295.923 522.867 294.821 523.392 294.415 524.632C294.232 525.192 294.221 525.631 294.41 526.136L295.221 525.959C295.086 525.56 295.07 525.201 295.188 524.841C295.411 524.161 296.048 523.838 296.808 524.086C297.528 524.322 297.851 524.959 297.668 525.652C297.551 526.012 297.326 526.293 296.981 526.534L297.53 527.157C297.981 526.862 298.232 526.501 298.415 525.941C298.821 524.701 298.243 523.626 297.083 523.246ZM294.543 531.007L296.464 531.636L296.739 530.796L296.259 530.638C296.71 530.476 297.041 530.142 297.211 529.621C297.565 528.541 296.999 527.426 295.839 527.047C294.679 526.667 293.564 527.232 293.211 528.313C293.028 528.873 293.097 529.338 293.378 529.696L292.898 529.539L292.623 530.379L294.543 531.007ZM295.551 527.927C296.231 528.149 296.648 528.773 296.412 529.493C296.189 530.173 295.512 530.483 294.792 530.247C294.112 530.025 293.709 529.361 293.932 528.681C294.207 527.974 294.871 527.704 295.551 527.927ZM300.837 518.54C301.203 517.42 300.665 516.358 299.465 515.965C298.265 515.572 297.203 516.111 296.823 517.271C296.64 517.831 296.617 518.443 296.833 519.001L297.564 518.797C297.428 518.399 297.399 517.947 297.53 517.547C297.7 517.026 298.111 516.585 298.83 516.687L297.901 519.528L298.221 519.633C299.448 520.078 300.483 519.62 300.837 518.54L300.837 518.54ZM300.117 518.304C299.947 518.824 299.509 519.08 298.882 518.963L299.537 516.963C300.031 517.213 300.313 517.704 300.117 518.304ZM292.017 538.729L295.458 539.854L295.733 539.014L293.732 538.36C294.184 538.197 294.515 537.863 294.685 537.343C295.039 536.262 294.473 535.147 293.313 534.768C292.153 534.388 291.038 534.954 290.685 536.034C290.501 536.594 290.57 537.059 290.852 537.417L290.372 537.26L290.097 538.1L292.017 538.729ZM293.025 535.648C293.705 535.871 294.121 536.494 293.886 537.214C293.663 537.894 292.986 538.204 292.266 537.968C291.586 537.746 291.183 537.083 291.405 536.403C291.681 535.695 292.345 535.426 293.025 535.648ZM302.214 507.564L304.134 508.192L304.409 507.352L303.929 507.195C304.38 507.032 304.711 506.698 304.881 506.178C305.235 505.098 304.67 503.983 303.509 503.603C302.349 503.223 301.234 503.789 300.881 504.869C300.698 505.429 300.767 505.895 301.048 506.252L300.568 506.095L300.293 506.935L302.214 507.564ZM303.235 504.443C303.915 504.666 304.331 505.289 304.095 506.009C303.873 506.689 303.195 506.999 302.475 506.764C301.795 506.541 301.392 505.878 301.615 505.198C301.89 504.491 302.554 504.221 303.235 504.443Z" fill="white"/>
<path d="M321.507 518.969C326.108 520.474 329.482 523.97 331.036 528.154C333.755 526.342 335.923 523.641 337.022 520.281C339.627 512.319 335.293 503.771 327.332 501.166C319.371 498.562 310.822 502.895 308.218 510.856C307.118 514.217 307.27 517.677 308.393 520.746C312.079 518.276 316.907 517.464 321.507 518.969Z" fill="#EB001B"/>
<path d="M312.083 547.773C304.122 545.169 299.788 536.62 302.393 528.659C303.493 525.298 305.66 522.598 308.379 520.786C309.92 525.01 313.307 528.465 317.908 529.971C322.508 531.476 327.296 530.65 331.023 528.194C332.145 531.262 332.297 534.722 331.198 538.083C328.593 546.044 320.005 550.365 312.083 547.773L312.083 547.773Z" fill="#F79E1B"/>
<path opacity="0.9" d="M443.705 179.547C444.166 179.645 444.578 179.558 444.942 179.285C445.304 179.016 445.577 178.602 445.761 178.041C445.89 177.647 445.941 177.289 445.914 176.968C445.888 176.647 445.797 176.379 445.642 176.163C445.487 175.946 445.279 175.794 445.019 175.705C444.801 175.634 444.596 175.621 444.404 175.667C444.211 175.717 444.03 175.81 443.862 175.947C443.696 176.085 443.542 176.247 443.398 176.433C443.254 176.619 443.122 176.811 443.001 177.008L442.436 177.907C442.215 178.271 441.967 178.609 441.692 178.922C441.416 179.238 441.111 179.501 440.779 179.712C440.445 179.926 440.083 180.064 439.691 180.123C439.299 180.183 438.877 180.139 438.425 179.991C437.813 179.791 437.326 179.459 436.962 178.994C436.603 178.53 436.389 177.96 436.32 177.283C436.254 176.61 436.358 175.856 436.632 175.02C436.897 174.208 437.254 173.544 437.701 173.028C438.147 172.516 438.666 172.171 439.259 171.992C439.85 171.817 440.497 171.829 441.199 172.029L440.591 173.889C440.218 173.797 439.879 173.811 439.573 173.929C439.267 174.047 439.003 174.245 438.781 174.522C438.558 174.802 438.381 175.14 438.253 175.534C438.118 175.945 438.061 176.325 438.082 176.674C438.106 177.028 438.199 177.329 438.362 177.578C438.529 177.828 438.761 178.004 439.059 178.105C439.332 178.191 439.582 178.184 439.81 178.086C440.041 177.989 440.262 177.818 440.474 177.575C440.687 177.337 440.903 177.046 441.12 176.703L441.814 175.616C442.317 174.828 442.874 174.258 443.486 173.905C444.1 173.557 444.781 173.505 445.528 173.75C446.143 173.951 446.627 174.294 446.981 174.778C447.333 175.266 447.542 175.84 447.608 176.501C447.677 177.163 447.592 177.86 447.353 178.59C447.111 179.331 446.769 179.938 446.329 180.41C445.89 180.888 445.391 181.212 444.831 181.382C444.275 181.554 443.701 181.548 443.11 181.366L443.705 179.547ZM434.121 182.694C434.283 182.198 434.518 181.78 434.825 181.441C435.134 181.105 435.501 180.88 435.927 180.763C436.351 180.65 436.82 180.677 437.333 180.845C437.775 180.99 438.113 181.191 438.349 181.448C438.584 181.706 438.743 182.004 438.824 182.343C438.905 182.681 438.931 183.042 438.904 183.424C438.879 183.811 438.825 184.201 438.741 184.595C438.639 185.07 438.559 185.456 438.503 185.753C438.451 186.052 438.444 186.279 438.483 186.435C438.525 186.596 438.634 186.705 438.811 186.762L438.841 186.772C439.225 186.898 439.56 186.881 439.845 186.723C440.13 186.564 440.343 186.271 440.483 185.842C440.631 185.39 440.65 185 440.539 184.67C440.428 184.344 440.253 184.091 440.014 183.912L440.823 182.269C441.254 182.56 441.578 182.915 441.795 183.332C442.016 183.75 442.132 184.211 442.144 184.716C442.159 185.221 442.077 185.747 441.898 186.294C441.775 186.671 441.608 187.032 441.397 187.377C441.186 187.722 440.929 188.016 440.624 188.258C440.322 188.502 439.967 188.661 439.559 188.734C439.151 188.811 438.686 188.764 438.166 188.594L432.927 186.88L433.507 185.106L434.582 185.458L434.602 185.397C434.422 185.214 434.269 184.989 434.146 184.723C434.025 184.461 433.956 184.158 433.941 183.815C433.927 183.476 433.988 183.102 434.121 182.694ZM435.32 183.617C435.199 183.988 435.167 184.333 435.224 184.652C435.285 184.973 435.413 185.246 435.61 185.473C435.806 185.702 436.048 185.864 436.337 185.959L437.26 186.261C437.231 186.187 437.219 186.074 437.224 185.922C437.228 185.772 437.242 185.608 437.267 185.428C437.292 185.248 437.32 185.071 437.35 184.897C437.381 184.722 437.408 184.571 437.431 184.443C437.484 184.156 437.503 183.889 437.489 183.644C437.475 183.399 437.413 183.188 437.301 183.013C437.193 182.838 437.019 182.712 436.782 182.634C436.442 182.523 436.145 182.563 435.89 182.754C435.636 182.946 435.446 183.233 435.32 183.617ZM437.999 197.866L431.082 192.516L431.749 190.478L440.491 190.251L439.847 192.218L433.443 192.115L433.416 192.197L438.641 195.904L437.999 197.866ZM428.978 198.415C429.14 197.919 429.375 197.501 429.681 197.161C429.99 196.826 430.358 196.6 430.783 196.483C431.208 196.37 431.677 196.397 432.19 196.565C432.632 196.71 432.97 196.911 433.206 197.169C433.441 197.426 433.599 197.724 433.68 198.063C433.761 198.402 433.788 198.762 433.761 199.145C433.736 199.531 433.682 199.922 433.598 200.316C433.495 200.79 433.416 201.176 433.36 201.474C433.307 201.772 433.301 202 433.34 202.156C433.382 202.316 433.491 202.425 433.668 202.483L433.698 202.493C434.082 202.618 434.417 202.602 434.702 202.443C434.987 202.284 435.2 201.991 435.34 201.563C435.488 201.111 435.506 200.72 435.396 200.39C435.284 200.064 435.11 199.812 434.871 199.632L435.679 197.989C436.111 198.281 436.435 198.635 436.652 199.052C436.873 199.47 436.989 199.932 437.001 200.436C437.016 200.941 436.934 201.467 436.755 202.014C436.632 202.392 436.465 202.753 436.254 203.098C436.043 203.442 435.785 203.736 435.48 203.979C435.179 204.222 434.824 204.381 434.416 204.454C434.007 204.531 433.543 204.485 433.023 204.315L427.783 202.6L428.364 200.826L429.439 201.178L429.459 201.117C429.278 200.934 429.126 200.709 429.003 200.443C428.881 200.181 428.813 199.879 428.797 199.535C428.784 199.196 428.844 198.823 428.978 198.415ZM430.177 199.337C430.056 199.708 430.024 200.053 430.081 200.373C430.141 200.693 430.27 200.967 430.467 201.193C430.663 201.422 430.905 201.585 431.194 201.679L432.116 201.981C432.088 201.908 432.076 201.795 432.081 201.642C432.084 201.493 432.099 201.328 432.124 201.148C432.149 200.968 432.176 200.791 432.207 200.617C432.238 200.443 432.265 200.291 432.288 200.164C432.34 199.876 432.36 199.61 432.346 199.364C432.332 199.119 432.269 198.909 432.158 198.733C432.049 198.558 431.876 198.432 431.638 198.354C431.299 198.243 431.001 198.283 430.747 198.474C430.492 198.666 430.302 198.954 430.177 199.337ZM431.207 207.658L426.62 206.157L427.223 204.312L435.052 206.873L434.475 208.637L433.145 208.202L433.115 208.294C433.494 208.617 433.749 209.018 433.878 209.497C434.006 209.979 433.975 210.512 433.784 211.097C433.607 211.637 433.337 212.07 432.975 212.395C432.612 212.724 432.175 212.927 431.664 213.004C431.152 213.085 430.584 213.022 429.96 212.814L424.975 211.183L425.579 209.338L430.279 210.875C430.802 211.046 431.256 211.045 431.64 210.869C432.024 210.698 432.293 210.374 432.449 209.898C432.555 209.575 432.577 209.265 432.517 208.967C432.459 208.673 432.32 208.412 432.102 208.182C431.882 207.956 431.584 207.781 431.207 207.658ZM428.392 216.261L423.805 214.76L424.409 212.915L432.238 215.477L431.661 217.24L430.33 216.805L430.3 216.897C430.68 217.22 430.934 217.621 431.063 218.1C431.192 218.582 431.16 219.115 430.969 219.7C430.792 220.24 430.523 220.673 430.16 220.998C429.797 221.327 429.36 221.53 428.849 221.607C428.338 221.688 427.77 221.625 427.146 221.417L422.161 219.786L422.764 217.941L427.464 219.478C427.987 219.65 428.441 219.648 428.826 219.472C429.209 219.301 429.479 218.977 429.634 218.501C429.74 218.178 429.762 217.868 429.702 217.57C429.644 217.276 429.506 217.015 429.287 216.785C429.068 216.559 428.769 216.384 428.392 216.261ZM420.699 223.719C420.861 223.223 421.096 222.805 421.402 222.465C421.712 222.13 422.079 221.904 422.504 221.788C422.929 221.675 423.398 221.702 423.911 221.87C424.353 222.014 424.691 222.215 424.927 222.473C425.162 222.731 425.32 223.029 425.401 223.368C425.482 223.706 425.509 224.067 425.482 224.449C425.457 224.836 425.403 225.226 425.319 225.62C425.216 226.095 425.137 226.48 425.081 226.778C425.029 227.077 425.022 227.304 425.061 227.46C425.103 227.62 425.212 227.729 425.389 227.787L425.419 227.797C425.803 227.923 426.138 227.906 426.423 227.748C426.708 227.589 426.921 227.295 427.061 226.867C427.209 226.415 427.227 226.025 427.117 225.695C427.006 225.369 426.831 225.116 426.592 224.936L427.401 223.294C427.832 223.585 428.156 223.94 428.373 224.357C428.594 224.775 428.71 225.236 428.722 225.74C428.737 226.246 428.655 226.772 428.476 227.319C428.353 227.696 428.186 228.057 427.975 228.402C427.764 228.747 427.507 229.041 427.201 229.283C426.9 229.527 426.545 229.685 426.137 229.759C425.728 229.836 425.264 229.789 424.744 229.619L419.504 227.905L420.085 226.131L421.16 226.483L421.18 226.422C420.999 226.238 420.847 226.014 420.724 225.748C420.602 225.486 420.534 225.183 420.519 224.84C420.505 224.501 420.565 224.127 420.699 223.719ZM421.898 224.642C421.777 225.012 421.745 225.357 421.802 225.677C421.862 225.998 421.991 226.271 422.188 226.497C422.384 226.727 422.626 226.889 422.915 226.984L423.837 227.285C423.809 227.212 423.797 227.099 423.802 226.946C423.805 226.797 423.82 226.633 423.845 226.453C423.87 226.273 423.898 226.096 423.928 225.921C423.959 225.747 423.986 225.596 424.009 225.468C424.062 225.181 424.081 224.914 424.067 224.669C424.053 224.424 423.991 224.213 423.879 224.037C423.77 223.863 423.597 223.737 423.359 223.659C423.02 223.548 422.722 223.588 422.468 223.779C422.214 223.97 422.024 224.258 421.898 224.642ZM422.928 232.963L418.341 231.462L418.944 229.617L429.383 233.032L428.793 234.836L424.853 233.547L424.823 233.639C425.204 233.967 425.46 234.365 425.589 234.832C425.721 235.304 425.689 235.839 425.493 236.437C425.315 236.98 425.046 237.417 424.686 237.747C424.326 238.077 423.891 238.281 423.38 238.358C422.869 238.439 422.297 238.376 421.665 238.169L416.68 236.538L417.283 234.693L421.983 236.231C422.51 236.403 422.964 236.401 423.345 236.225C423.728 236.053 423.999 235.724 424.158 235.238C424.265 234.912 424.289 234.597 424.231 234.292C424.175 233.991 424.039 233.725 423.821 233.492C423.603 233.262 423.305 233.086 422.928 232.963ZM422.599 253.768L412.16 250.352L412.711 248.67L421.43 246.078L421.459 245.991L414.348 243.665L414.967 241.774L425.406 245.189L424.852 246.881L416.129 249.467L416.099 249.559L423.214 251.887L422.599 253.768ZM407.347 254.579C407.564 253.916 407.84 253.376 408.176 252.96C408.508 252.542 408.871 252.237 409.264 252.046C409.658 251.855 410.055 251.763 410.455 251.77L410.314 253.563C410.137 253.588 409.95 253.647 409.754 253.741C409.554 253.834 409.366 253.985 409.188 254.194C409.006 254.405 408.854 254.696 408.733 255.066C408.562 255.589 408.548 256.064 408.69 256.491C408.83 256.916 409.188 257.224 409.766 257.413L411.249 257.898L411.279 257.806C411.12 257.649 410.97 257.446 410.829 257.197C410.688 256.951 410.598 256.656 410.56 256.313C410.521 255.973 410.575 255.578 410.721 255.13C410.918 254.528 411.238 254.029 411.68 253.632C412.124 253.239 412.676 252.991 413.334 252.887C413.995 252.787 414.752 252.877 415.605 253.156C416.465 253.437 417.143 253.817 417.641 254.296C418.141 254.779 418.464 255.316 418.61 255.905C418.759 256.496 418.735 257.092 418.539 257.693C418.388 258.152 418.187 258.503 417.934 258.748C417.683 258.997 417.42 259.174 417.145 259.28C416.873 259.386 416.627 259.454 416.407 259.484L416.373 259.586L417.668 260.009L417.072 261.829L409.116 259.226C408.447 259.007 407.945 258.666 407.611 258.203C407.277 257.74 407.092 257.196 407.056 256.571C407.02 255.946 407.117 255.282 407.347 254.579ZM412 256.118C411.873 256.509 411.859 256.873 411.959 257.211C412.059 257.548 412.264 257.847 412.575 258.106C412.885 258.365 413.289 258.577 413.789 258.74C414.282 258.902 414.737 258.971 415.154 258.95C415.57 258.932 415.925 258.818 416.219 258.61C416.515 258.406 416.728 258.105 416.858 257.707C416.992 257.296 416.998 256.918 416.874 256.573C416.75 256.227 416.524 255.924 416.195 255.662C415.871 255.402 415.472 255.194 415 255.04C414.521 254.883 414.078 254.815 413.672 254.837C413.269 254.863 412.922 254.981 412.631 255.19C412.343 255.405 412.133 255.714 412 256.118ZM410.332 267.082L414.868 268.567L414.264 270.412L406.435 267.85L407.021 266.061L408.412 266.516L408.439 266.435C408.058 266.115 407.795 265.707 407.649 265.211C407.501 264.719 407.524 264.179 407.716 263.591C407.884 263.078 408.146 262.662 408.503 262.342C408.862 262.027 409.296 261.831 409.807 261.753C410.321 261.677 410.891 261.741 411.516 261.946L416.501 263.577L415.897 265.422L411.198 263.884C410.701 263.722 410.263 263.729 409.882 263.905C409.5 264.081 409.238 264.39 409.093 264.832C409.004 265.104 408.984 265.389 409.033 265.687C409.083 265.985 409.211 266.259 409.42 266.507C409.63 266.761 409.934 266.952 410.332 267.082ZM402.55 269.79C402.633 269.539 402.729 269.313 402.84 269.112C402.946 268.914 403.046 268.76 403.138 268.651L404.435 269.549C404.269 269.792 404.153 270.019 404.088 270.231C404.022 270.443 404.028 270.65 404.105 270.852C404.177 271.056 404.343 271.263 404.602 271.472L404.973 271.768L413.894 271.544L413.254 273.501L406.751 273.371L406.724 273.452L412.045 277.196L411.403 279.159L403.651 273.152C403.284 272.871 402.993 272.561 402.776 272.223C402.556 271.884 402.425 271.514 402.383 271.112C402.337 270.714 402.393 270.273 402.55 269.79ZM402.003 280.88C402.26 280.095 402.645 279.471 403.158 279.007C403.673 278.547 404.281 278.263 404.983 278.154C405.688 278.046 406.45 278.126 407.269 278.394C408.074 278.657 408.731 279.041 409.239 279.546C409.749 280.055 410.084 280.643 410.243 281.308C410.405 281.974 410.363 282.681 410.119 283.428C409.961 283.911 409.734 284.341 409.437 284.718C409.143 285.099 408.781 285.402 408.35 285.626C407.918 285.853 407.422 285.98 406.86 286.007C406.302 286.035 405.679 285.937 404.993 285.712L404.427 285.527L406.526 279.11L407.77 279.517L406.249 284.165C406.604 284.278 406.943 284.304 407.267 284.245C407.595 284.186 407.882 284.049 408.13 283.833C408.376 283.62 408.557 283.337 408.673 282.983C408.796 282.606 408.813 282.245 408.723 281.899C408.636 281.555 408.471 281.255 408.228 280.998C407.987 280.746 407.692 280.561 407.343 280.444L406.257 280.088C405.802 279.939 405.384 279.895 405.003 279.955C404.626 280.015 404.302 280.167 404.03 280.409C403.763 280.653 403.563 280.975 403.432 281.376C403.344 281.644 403.302 281.9 403.306 282.142C403.313 282.385 403.365 282.61 403.462 282.819C403.559 283.028 403.705 283.209 403.899 283.363L403.142 285.022C402.722 284.764 402.393 284.427 402.153 284.01C401.915 283.598 401.78 283.125 401.748 282.591C401.719 282.059 401.804 281.488 402.003 280.88ZM404.537 289.175L399.95 287.674L400.553 285.829L408.382 288.39L407.805 290.154L406.475 289.719L406.445 289.811C406.824 290.134 407.079 290.535 407.208 291.014C407.336 291.496 407.305 292.029 407.114 292.614C406.937 293.154 406.667 293.587 406.305 293.912C405.942 294.241 405.505 294.444 404.994 294.521C404.482 294.602 403.914 294.539 403.29 294.331L398.305 292.7L398.909 290.855L403.608 292.392C404.132 292.563 404.586 292.562 404.97 292.386C405.354 292.215 405.623 291.891 405.779 291.415C405.885 291.092 405.907 290.782 405.847 290.484C405.789 290.19 405.65 289.929 405.432 289.699C405.212 289.473 404.914 289.298 404.537 289.175Z" fill="white"/>
<g clip-path="url(#clip1_4620_3053)">
<rect x="366.884" y="142.139" width="60.0862" height="45.3985" rx="10.0144" transform="rotate(108.117 366.884 142.139)" fill="white"/>
<g opacity="0.57">
<g filter="url(#filter1_ii_4620_3053)">
<rect x="366.884" y="142.139" width="60.0862" height="45.3985" rx="10.0144" transform="rotate(108.117 366.884 142.139)" fill="url(#paint0_linear_4620_3053)"/>
<rect x="366.884" y="142.139" width="60.0862" height="45.3985" rx="10.0144" transform="rotate(108.117 366.884 142.139)" fill="url(#paint1_radial_4620_3053)" style="mix-blend-mode:overlay"/>
<rect x="366.884" y="142.139" width="60.0862" height="45.3985" rx="10.0144" transform="rotate(108.117 366.884 142.139)" fill="#F8C307" style="mix-blend-mode:color"/>
</g>
<rect x="366.462" y="142.352" width="59.4186" height="44.7308" rx="9.68055" transform="rotate(108.117 366.462 142.352)" stroke="black" stroke-width="0.667624"/>
</g>
<line x1="351.765" y1="137.895" x2="347.197" y2="151.854" stroke="black" stroke-width="0.667624"/>
<line x1="328.714" y1="131.056" x2="322.486" y2="150.092" stroke="black" stroke-width="0.667624"/>
<line x1="360.44" y1="141.436" x2="354.212" y2="160.472" stroke="black" stroke-width="0.667624"/>
<line x1="317.089" y1="166.589" x2="310.861" y2="185.625" stroke="black" stroke-width="0.667624"/>
<line x1="348.815" y1="176.969" x2="342.587" y2="196.005" stroke="black" stroke-width="0.667624"/>
<line x1="332.39" y1="146.659" x2="347.619" y2="151.641" stroke="black" stroke-width="0.667624"/>
<line x1="344.15" y1="135.404" x2="339.583" y2="149.363" stroke="black" stroke-width="0.667624"/>
<line x1="337.171" y1="133.12" x2="332.603" y2="147.08" stroke="black" stroke-width="0.667624"/>
<line x1="332.39" y1="146.659" x2="347.619" y2="151.641" stroke="black" stroke-width="0.667624"/>
<line x1="344.15" y1="135.404" x2="339.583" y2="149.363" stroke="black" stroke-width="0.667624"/>
<line x1="337.171" y1="133.12" x2="332.603" y2="147.08" stroke="black" stroke-width="0.667624"/>
<line x1="337.856" y1="180.408" x2="333.288" y2="194.368" stroke="black" stroke-width="0.667624"/>
<line x1="323.048" y1="175.212" x2="338.277" y2="180.195" stroke="black" stroke-width="0.667624"/>
<line x1="330.241" y1="177.917" x2="325.674" y2="191.876" stroke="black" stroke-width="0.667624"/>
<line x1="323.261" y1="175.633" x2="318.694" y2="189.593" stroke="black" stroke-width="0.667624"/>
<line x1="353.999" y1="160.05" x2="360.344" y2="162.126" stroke="black" stroke-width="0.667624"/>
<line x1="348.601" y1="176.548" x2="354.947" y2="178.624" stroke="black" stroke-width="0.667624"/>
<line x1="317.196" y1="148.01" x2="322.907" y2="149.878" stroke="black" stroke-width="0.667624"/>
<line x1="311.799" y1="164.507" x2="317.51" y2="166.376" stroke="black" stroke-width="0.667624"/>
<line x1="335.776" y1="148.118" x2="326.434" y2="176.671" stroke="black" stroke-width="0.667624"/>
<line x1="330.788" y1="162.291" x2="326.346" y2="160.837" stroke="black" stroke-width="0.667624"/>
<line x1="346.136" y1="150.805" x2="340.116" y2="169.206" stroke="black" stroke-width="0.667624"/>
<line x1="339.798" y1="169.102" x2="343.606" y2="170.348" stroke="black" stroke-width="0.667624"/>
<line x1="354.331" y1="159.977" x2="343.199" y2="170.384" stroke="black" stroke-width="0.667624"/>
<line x1="322.482" y1="149.873" x2="326.556" y2="161.04" stroke="black" stroke-width="0.667624"/>
<line x1="316.609" y1="166.194" x2="326.81" y2="160.499" stroke="black" stroke-width="0.667624"/>
<line x1="349.008" y1="176.477" x2="347.824" y2="166.331" stroke="black" stroke-width="0.667624"/>
</g>
</g>
</g>
<defs>
<filter id="filter0_d_4620_3053" x="0.359461" y="-1.84826" width="563.548" height="669.274" filterUnits="userSpaceOnUse" color-interpolation-filters="sRGB">
<feFlood flood-opacity="0" result="BackgroundImageFix"/>
<feColorMatrix in="SourceAlpha" type="matrix" values="0 0 0 0 0 0 0 0 0 0 0 0 0 0 0 0 0 0 127 0" result="hardAlpha"/>
<feMorphology radius="15.102" operator="dilate" in="SourceAlpha" result="effect1_dropShadow_4620_3053"/>
<feOffset dy="6.04081"/>
<feGaussianBlur stdDeviation="30.2041"/>
<feComposite in2="hardAlpha" operator="out"/>
<feColorMatrix type="matrix" values="0 0 0 0 0.388235 0 0 0 0 0.243137 0 0 0 0 0.972549 0 0 0 0.18 0"/>
<feBlend mode="normal" in2="BackgroundImageFix" result="effect1_dropShadow_4620_3053"/>
<feBlend mode="normal" in="SourceGraphic" in2="effect1_dropShadow_4620_3053" result="shape"/>
</filter>
<filter id="filter1_ii_4620_3053" x="307.667" y="129.636" width="56.6023" height="67.9975" filterUnits="userSpaceOnUse" color-interpolation-filters="sRGB">
<feFlood flood-opacity="0" result="BackgroundImageFix"/>
<feBlend mode="normal" in="SourceGraphic" in2="BackgroundImageFix" result="shape"/>
<feColorMatrix in="SourceAlpha" type="matrix" values="0 0 0 0 0 0 0 0 0 0 0 0 0 0 0 0 0 0 127 0" result="hardAlpha"/>
<feOffset dy="-2.00287"/>
<feGaussianBlur stdDeviation="0.500718"/>
<feComposite in2="hardAlpha" operator="arithmetic" k2="-1" k3="1"/>
<feColorMatrix type="matrix" values="0 0 0 0 1 0 0 0 0 1 0 0 0 0 1 0 0 0 0.5 0"/>
<feBlend mode="normal" in2="shape" result="effect1_innerShadow_4620_3053"/>
<feColorMatrix in="SourceAlpha" type="matrix" values="0 0 0 0 0 0 0 0 0 0 0 0 0 0 0 0 0 0 127 0" result="hardAlpha"/>
<feOffset dy="2.00287"/>
<feGaussianBlur stdDeviation="0.500718"/>
<feComposite in2="hardAlpha" operator="arithmetic" k2="-1" k3="1"/>
<feColorMatrix type="matrix" values="0 0 0 0 1 0 0 0 0 1 0 0 0 0 1 0 0 0 0.4 0"/>
<feBlend mode="normal" in2="effect1_innerShadow_4620_3053" result="effect2_innerShadow_4620_3053"/>
</filter>
<linearGradient id="paint0_linear_4620_3053" x1="366.884" y1="180.33" x2="428.731" y2="158.99" gradientUnits="userSpaceOnUse">
<stop offset="0.10895" stop-color="#576265"/>
<stop offset="0.212226" stop-color="#576265"/>
<stop offset="0.503201" stop-color="#9EA1A1"/>
<stop offset="0.561311" stop-color="#757A7B"/>
<stop offset="0.799719" stop-color="#576265"/>
<stop offset="0.874134" stop-color="#848B8A"/>
<stop offset="0.937635" stop-color="#576265"/>
</linearGradient>
<radialGradient id="paint1_radial_4620_3053" cx="0" cy="0" r="1" gradientUnits="userSpaceOnUse" gradientTransform="translate(366.884 138.734) rotate(48.9525) scale(45.7497 66.0517)">
<stop stop-color="white"/>
<stop offset="1" stop-color="white" stop-opacity="0"/>
</radialGradient>
<clipPath id="clip0_4620_3053">
<rect x="488.397" y="156.643" width="451.621" height="286.288" rx="10" transform="rotate(108.117 488.397 156.643)" fill="white"/>
</clipPath>
<clipPath id="clip1_4620_3053">
<rect x="366.884" y="142.139" width="60.0862" height="45.3985" rx="10.0144" transform="rotate(108.117 366.884 142.139)" fill="white"/>
</clipPath>
</defs>
</svg>
